<svg xmlns="http://www.w3.org/2000/svg" xmlns:xlink="http://www.w3.org/1999/xlink" version="1.1" id="Layer_1" x="0px" y="0px" viewBox="0 0 2000 2000" enable-background="new 0 0 2000 2000" xml:space="preserve" width="2000"  height="2000" >
<g>
	<path fill="none" d="M1382.3,745.1l-9.8,1.4l2.1,9.7c1.1,4.9,24.1,119.3-92.9,165.3l-4.4,1.8l-1.2,4.6   c-0.7,2.4-17.7,63.2-101.5,58.7c-77.3-3.7-138.2-35.5-170.4-88c13.3,3,29.2,5.9,46.3,7.4c6.9,0.5,14,0.9,21.2,0.9   c53.7,0,95.2-17.3,123.2-51.5l1.8-2.6c21.3-34.7,27.1-65.8,17.6-92.4c-12.2-34.1-45-45.4-46.3-45.8c-12.1-4.2-25.9,2.6-29.9,14.6   c-2,5.9-1.6,12.4,1.1,18c2.8,5.7,7.6,9.9,13.4,11.9c0.1,0.1,13.1,5,17.4,17.3c4.3,12-0.3,30.1-12.1,49.8   c-18.6,22.1-47.5,33.2-86.2,33.2c-39.3,0-76.7-11.7-89.3-16.2l-1.7-7.4l-7.9,0.6c-1.1,0-177.7,10.6-196.2-116.9   c3.6-4.6,5.3-10.3,4.8-16.2c-0.3-3.7-5.9-91.3,95-109.6c10.1-1.8,17.8-9.8,19.2-19.9c0.1-0.5,7.9-51.2,48-59.2   c6.3-1.2,12.6-1.9,18.8-1.9c34.1,0,56.8,19.1,57.6,19.8c8.1,7.3,21,7.9,29.7,1.4c1.2-0.9,30.8-22.7,69.9-22.7   c34.5,0,65.7,16.8,92.9,50.1c7.8,9.6,23.4,11.2,33,3.3c4.9-4,7.9-9.6,8.6-15.9c0.7-6.3-1.2-12.4-5.2-17.3   c-32-39-69.2-61.3-110.6-66.1c3.1-26.5,15.6-72.1,62.9-84.2c10.1-2.6,20.7-3.9,31.7-3.9c34.9,0,68.5,13.1,90,35.2   c23,23.5,29.5,55.5,18.8,92.7c-2.7,9.6,0.9,19.8,8.9,25.5c1.3,1,33,25.4,25.6,79.4c-2.6,18.7-11.8,31.8-27.3,39   c-23,10.7-57,6.1-84.2-11c-33.7-21.5-75.9-33.2-118.6-33.2c-41.8,0-78.6,11.4-103.5,32.2c-12.3,10.2-52.5,43-73.3,38.2   c-7.6-1.7-14.2-8.7-20.2-21.3c-5.4-11.4-19.9-16.6-31.4-11.2c-5.6,2.7-10,7.5-12.1,13.4c-2,5.9-1.7,12.3,1,18   c12.5,26.4,30.2,42.2,52.7,47.1c2.9,0.7,5.9,1.1,8.9,1.3c36.2,3,73.7-23.5,104.6-49.4c16-13.3,42.5-20.9,72.8-20.9   c34.1,0,68.3,9.4,93.9,25.6c40.2,25.5,92,31.2,129.1,14c30.2-13.9,49.4-40.6,54.2-75.2c8.2-59.1-17.5-96.5-32.3-112.7   c9.6-47.9-2.4-91.8-33.9-124.2c-30-30.8-76.5-49.2-124.3-49.2c-10.7,0-21.2,1-31.4,2.8c-3.3-19.1-11.7-38.4-24-55.3   c-15.7-21.4-45.3-48.8-97.2-57.3c-7.7-1.3-15.3-1.8-22.7-1.8c-51.6,0-84.9,29.1-100.5,46.9c-12.6-6.8-31.7-13.3-58.1-13.3   c-14.4,0-30,1.9-46.2,5.8c-61.7,14.6-84.4,58.4-92.1,81.3c-32.9-9.3-67.7-6.2-96.6,7.8c-8,8.7-15.7,17.8-23,27.1   c-7.1,9-13.9,18.1-20.3,27.5c-6.2,9.1-11.9,18.5-17.4,28c-2,18.1,0.5,37.4,8.2,57.1c10.7,26.7,28,45.2,51.5,54.9   c11.8,5,24.9,7.4,39,7.4c25.9,0,46.9-8.4,49.2-9.4c11.9-5,17.5-18.8,12.5-30.8c-4.9-11.6-18.9-17.5-30.8-12.6   c-0.1,0-14.3,5.8-31,5.8c-7.9,0-14.9-1.3-21-3.9c-11.5-4.8-19.9-14.3-25.8-28.7c-11.4-29.6-5.4-55.3,16.8-72.5   c13.3-10.3,31.6-16.1,50.4-16.1c20.3,0,40.2,6.6,57.8,19.4c60.2,43.4,62.6,129.5,62,153.7c-55.4,17.6-81.7,53.7-94.2,83.2   c-5.7,0.5-11.5,0.9-17.3,0.9c-44.9,0-108.2-16.8-154.4-96.3c-4.7-8.1-8.7-16.3-12.3-24.5c-1.4,4.4-2.8,8.8-4.1,13.2   c-1.3,4.3-2.5,8.5-3.7,12.8C545.5,581.5,540,621.6,540,663c0,7.7,1.2,15.3,2.4,22.7l6.9,65.4l-1.1,1.1   c10.3,60.5,50,214,197.3,403.8c44.8,59.6,59.7,135.1,61.8,211.1h96h69.4h99.7h69.4h64.1c1.9-76,16.6-151,61-209.7   c148.1-190.9,187.8-344.5,198.3-405.1l-1.2-1.1l4.1-38.4l2-18.6l0.9-8.4c0.7-4.7,1.4-9.6,1.8-14.4   C1450.1,717.6,1411.9,740.7,1382.3,745.1z M801.8,369.7c-2.8-2.1-5.7-4-8.7-5.8c2.4-15.2,13.7-56.3,67.8-69.1   c66.3-15.8,88.4,11.6,89.1,12.5c2.9,4,7.7,6.2,12.6,5.9c4.9-0.3,9.4-3.2,11.7-7.5c1.3-2.4,32.3-58.9,99.4-47.9   c73,11.9,93,71.9,91,97.6c-49.5,27.3-64.2,85.2-65.1,119.9c-28.4,4.1-51.2,15.3-63.2,22.4c-16-10.8-52.4-29.7-100-20.1   c-28.3,5.6-46.5,22.3-58.2,39.9C873.5,473.8,857,409.6,801.8,369.7z"/>
	<path fill="#FAA21B" d="M936.3,477.6c47.7-9.5,84,9.4,100,20.1c12-7.1,34.8-18.3,63.2-22.4c0.8-34.8,15.6-92.7,65.1-119.9   c2-25.6-18-85.7-91-97.6c-67.1-11-98.1,45.5-99.4,47.9c-2.3,4.4-6.8,7.3-11.7,7.5c-4.9,0.3-9.7-1.9-12.6-5.9   c-0.7-0.9-22.7-28.3-89.1-12.5c-54.1,12.8-65.5,53.9-67.8,69.1c3,1.8,5.9,3.7,8.7,5.8c55.3,39.9,71.8,104.1,76.3,147.8   C889.8,499.9,908,483.2,936.3,477.6z"/>
	<path fill="#FAA21B" d="M1570.5,663c0-311.5-252.3-563.8-563.7-563.8c-311.6,0-564,252.3-564,563.8c0,18.5,3.8,36,5.5,54.1   c-5.2,5.5,7.9,222.3,220.4,495.9c62.1,82.7,36.4,246.1,35.9,246.1h604.1c-0.5,0-26.3-163.4,35.8-246.1   c212.4-273.4,225.6-491.6,220.4-497.1C1566.8,697.8,1570.5,681.5,1570.5,663z M1471,685.7l-0.9,8.4l-2,18.6l-4.1,38.4l1.2,1.1   c-10.5,60.5-50.2,214.3-198.3,405.2c-44.4,58.8-59.1,133.7-61,209.7h-64.1h-69.4h-99.7h-69.4h-96c-2.1-76-17-151.5-61.8-211.1   C598.1,966.1,558.5,812.7,548.2,752.2l1.1-1.1l-6.9-65.4c-1.1-7.4-2.4-15-2.4-22.7c0-41.4,5.5-81.4,15.6-119.6   c1.1-4.3,2.4-8.6,3.7-12.8c1.3-4.4,2.7-8.8,4.1-13.2c3.6,8.2,7.6,16.4,12.3,24.5c46.3,79.5,109.5,96.3,154.4,96.3   c5.8,0,11.6-0.3,17.3-0.9c12.5-29.5,38.9-65.6,94.2-83.2c0.6-24.2-1.8-110.3-62-153.7C762,387.6,742.1,381,721.8,381   c-18.8,0-37.2,5.8-50.4,16.1c-22.3,17.2-28.2,42.9-16.8,72.5c5.9,14.4,14.3,23.9,25.8,28.7c6.1,2.6,13.1,3.9,21,3.9   c16.7,0,30.9-5.8,31-5.8c11.9-4.9,25.9,0.9,30.8,12.6c5,11.9-0.6,25.7-12.5,30.8c-2.4,1-23.4,9.4-49.2,9.4c-14,0-27.2-2.4-39-7.4   c-23.5-9.8-40.8-28.2-51.5-54.9c-7.6-19.7-10.2-39-8.2-57.1c5.5-9.5,11.3-18.9,17.4-28c6.4-9.5,13.3-18.6,20.3-27.5   c7.4-9.3,15-18.4,23-27.1c28.9-14,63.6-17.1,96.6-7.8c7.7-22.9,30.4-66.7,92.1-81.3c16.2-3.9,31.8-5.8,46.2-5.8   c26.4,0,45.4,6.5,58.1,13.3c15.6-17.8,49-46.9,100.5-46.9c7.5,0,15.1,0.5,22.7,1.8c51.9,8.5,81.5,35.9,97.2,57.3   c12.3,16.9,20.7,36.2,24,55.3c10.1-1.9,20.7-2.8,31.4-2.8c47.8,0,94.3,18.4,124.3,49.2c31.6,32.4,43.5,76.4,33.9,124.2   c14.8,16.2,40.5,53.6,32.3,112.7c-4.8,34.6-24,61.3-54.2,75.2c-37,17.2-88.9,11.5-129.1-14c-25.7-16.2-59.9-25.6-93.9-25.6   c-30.3,0-56.8,7.7-72.8,20.9c-31,25.9-68.4,52.4-104.6,49.4c-3-0.2-6-0.6-8.9-1.3c-22.5-4.9-40.2-20.7-52.7-47.1   c-2.7-5.7-3-12-1-18c2.2-5.9,6.5-10.7,12.1-13.4c11.5-5.4,26-0.2,31.4,11.2c6,12.7,12.6,19.7,20.2,21.3   c20.8,4.8,61.1-27.9,73.3-38.2c24.9-20.8,61.7-32.2,103.5-32.2c42.7,0,84.9,11.7,118.6,33.2c27.1,17.2,61.2,21.7,84.2,11   c15.5-7.2,24.7-20.3,27.3-39c7.5-54-24.3-78.4-25.6-79.4c-8-5.8-11.6-16-8.9-25.5c10.6-37.1,4.1-69.2-18.8-92.7   c-21.4-22-55.1-35.2-90-35.2c-11,0-21.6,1.3-31.7,3.9c-47.3,12.2-59.7,57.8-62.9,84.2c41.5,4.8,78.6,27.1,110.6,66.1   c4,4.9,5.9,11.1,5.2,17.3c-0.7,6.3-3.7,11.9-8.6,15.9c-9.6,7.9-25.3,6.4-33-3.3c-27.2-33.3-58.5-50.1-92.9-50.1   c-39,0-68.7,21.7-69.9,22.7c-8.7,6.5-21.6,5.9-29.7-1.4c-0.9-0.6-23.5-19.8-57.6-19.8c-6.2,0-12.5,0.7-18.8,1.9   c-40.1,8-47.9,58.7-48,59.2c-1.4,10.1-9.1,18.1-19.2,19.9c-100.9,18.2-95.2,105.8-95,109.6c0.5,5.8-1.3,11.6-4.8,16.2   c18.5,127.5,195.1,116.9,196.2,116.9l7.9-0.6l1.7,7.4c12.6,4.5,50,16.2,89.3,16.2c38.7,0,67.6-11.2,86.2-33.2   c11.8-19.7,16.4-37.9,12.1-49.8c-4.4-12.3-17.3-17.2-17.4-17.3c-5.8-2-10.7-6.2-13.4-11.9c-2.8-5.6-3.2-12-1.1-18   c4.1-12,17.9-18.8,29.9-14.6c1.3,0.4,34.1,11.6,46.3,45.8c9.6,26.6,3.7,57.7-17.6,92.4l-1.8,2.6c-28.1,34.1-69.6,51.5-123.2,51.5   c-7.2,0-14.3-0.3-21.2-0.9c-17-1.5-32.9-4.3-46.3-7.4c32.3,52.5,93.1,84.2,170.4,88c83.8,4.4,100.8-56.3,101.5-58.7l1.2-4.6   l4.4-1.8c116.9-46.1,93.9-160.5,92.9-165.3l-2.1-9.7l9.8-1.4c29.5-4.4,67.7-27.5,90.5-73.9C1472.4,676.1,1471.7,680.9,1471,685.7z"/>
	<path fill="#40433E" d="M706,1566h31v30h-31v46h31v46h-25.9c3.7,61,57.9,101.1,126.9,105.3c12.7,28.9,41.5,47.7,75,47.7h187.2   c33.6,0,62.4-18.8,75.1-47.7c69.2-4.2,123.2-44.3,126.9-105.3H1271v-46h31v-46h-31v-30h31v-61H706V1566z"/>
</g>
</svg>